<svg version="1.1" viewBox="0.0 0.0 1078.4330708661416 197.997375328084" fill="none" stroke="none" stroke-linecap="square" stroke-miterlimit="10" xmlns:xlink="http://www.w3.org/1999/xlink" xmlns="http://www.w3.org/2000/svg"><clipPath id="p.0"><path d="m0 0l1078.4331 0l0 197.99738l-1078.4331 0l0 -197.99738z" clip-rule="nonzero"/></clipPath><g clip-path="url(#p.0)"><path fill="#000000" fill-opacity="0.0" d="m0 0l1078.4331 0l0 197.99738l-1078.4331 0z" fill-rule="evenodd"/><path fill="#000000" fill-opacity="0.0" d="m156.35185 0.5975934l139.62206 0l0 58.173225l-139.62206 0z" fill-rule="evenodd"/><path fill="#000000" d="m208.6824 24.957594l0 -11.453125l7.84375 0l0 1.9375l-5.53125 0l0 2.703125l4.78125 0l0 1.9375l-4.78125 0l0 4.875l-2.3125 0zm15.1953125 0l0 -1.25q-0.453125 0.671875 -1.1875 1.0625q-0.734375 0.375 -1.5625 0.375q-0.828125 0 -1.5 -0.359375q-0.65625 -0.375 -0.953125 -1.03125q-0.296875 -0.671875 -0.296875 -1.84375l0 -5.25l2.1875 0l0 3.8125q0 1.75 0.125 2.140625q0.125 0.390625 0.4375 0.625q0.328125 0.234375 0.8125 0.234375q0.5625 0 1.0 -0.3125q0.453125 -0.3125 0.609375 -0.765625q0.171875 -0.453125 0.171875 -2.234375l0 -3.5l2.203125 0l0 8.296875l-2.046875 0zm4.3203125 0l0 -11.453125l2.1875 0l0 11.453125l-2.1875 0zm4.4453125 0l0 -11.453125l2.1875 0l0 11.453125l-2.1875 0zm3.3984375 -8.296875l2.34375 0l1.984375 5.890625l1.9375 -5.890625l2.265625 0l-2.921875 7.984375l-0.53125 1.453125q-0.28125 0.71875 -0.546875 1.09375q-0.265625 0.390625 -0.609375 0.625q-0.328125 0.25 -0.828125 0.375q-0.5 0.140625 -1.125 0.140625q-0.625 0 -1.234375 -0.140625l-0.203125 -1.71875q0.515625 0.109375 0.9375 0.109375q0.765625 0 1.125 -0.453125q0.375 -0.453125 0.5625 -1.140625l-3.15625 -8.328125z" fill-rule="nonzero"/><path fill="#000000" d="m191.58244 38.313847l-2.171875 0.390625q-0.109375 -0.65625 -0.5 -0.984375q-0.375 -0.328125 -1.0 -0.328125q-0.8125 0 -1.3125 0.578125q-0.484375 0.5625 -0.484375 1.890625q0 1.46875 0.5 2.078125q0.5 0.609375 1.328125 0.609375q0.625 0 1.015625 -0.34375q0.40625 -0.359375 0.578125 -1.234375l2.15625 0.375q-0.34375 1.484375 -1.296875 2.25q-0.953125 0.75 -2.546875 0.75q-1.828125 0 -2.90625 -1.140625q-1.078125 -1.15625 -1.078125 -3.1875q0 -2.0625 1.078125 -3.203125q1.09375 -1.140625 2.9375 -1.140625q1.515625 0 2.40625 0.65625q0.90625 0.640625 1.296875 1.984375zm1.1484375 1.578125q0 -1.09375 0.53125 -2.109375q0.546875 -1.03125 1.53125 -1.5625q1.0 -0.546875 2.21875 -0.546875q1.875 0 3.078125 1.21875q1.203125 1.21875 1.203125 3.09375q0 1.875 -1.21875 3.125q-1.203125 1.234375 -3.046875 1.234375q-1.140625 0 -2.1875 -0.515625q-1.03125 -0.515625 -1.578125 -1.515625q-0.53125 -1.0 -0.53125 -2.421875zm2.25 0.109375q0 1.234375 0.578125 1.890625q0.59375 0.65625 1.453125 0.65625q0.859375 0 1.4375 -0.65625q0.59375 -0.65625 0.59375 -1.90625q0 -1.21875 -0.59375 -1.875q-0.578125 -0.65625 -1.4375 -0.65625q-0.859375 0 -1.453125 0.65625q-0.578125 0.65625 -0.578125 1.890625zm15.5859375 4.15625l-2.203125 0l0 -4.234375q0 -1.34375 -0.140625 -1.734375q-0.140625 -0.40625 -0.453125 -0.625q-0.3125 -0.21875 -0.765625 -0.21875q-0.5625 0 -1.015625 0.3125q-0.453125 0.3125 -0.625 0.828125q-0.171875 0.515625 -0.171875 1.90625l0 3.765625l-2.1875 0l0 -8.296875l2.03125 0l0 1.21875q1.09375 -1.40625 2.734375 -1.40625q0.734375 0 1.328125 0.265625q0.609375 0.25 0.90625 0.65625q0.3125 0.40625 0.4375 0.921875q0.125 0.515625 0.125 1.484375l0 5.15625zm9.7734375 0l-2.203125 0l0 -4.234375q0 -1.34375 -0.140625 -1.734375q-0.140625 -0.40625 -0.453125 -0.625q-0.3125 -0.21875 -0.765625 -0.21875q-0.5625 0 -1.015625 0.3125q-0.453125 0.3125 -0.625 0.828125q-0.171875 0.515625 -0.171875 1.90625l0 3.765625l-2.1875 0l0 -8.296875l2.03125 0l0 1.21875q1.09375 -1.40625 2.734375 -1.40625q0.734375 0 1.328125 0.265625q0.609375 0.25 0.90625 0.65625q0.3125 0.40625 0.4375 0.921875q0.125 0.515625 0.125 1.484375l0 5.15625zm7.0234375 -2.640625l2.1875 0.359375q-0.421875 1.203125 -1.328125 1.84375q-0.90625 0.625 -2.28125 0.625q-2.15625 0 -3.203125 -1.421875q-0.8125 -1.125 -0.8125 -2.859375q0 -2.0625 1.078125 -3.21875q1.078125 -1.171875 2.71875 -1.171875q1.859375 0 2.921875 1.21875q1.078125 1.21875 1.03125 3.75l-5.5 0q0.015625 0.96875 0.515625 1.515625q0.515625 0.546875 1.28125 0.546875q0.515625 0 0.859375 -0.28125q0.359375 -0.28125 0.53125 -0.90625zm0.125 -2.21875q-0.015625 -0.953125 -0.484375 -1.453125q-0.46875 -0.5 -1.140625 -0.5q-0.71875 0 -1.1875 0.53125q-0.46875 0.515625 -0.46875 1.421875l3.28125 0zm11.2109375 -0.984375l-2.171875 0.390625q-0.109375 -0.65625 -0.5 -0.984375q-0.375 -0.328125 -1.0 -0.328125q-0.8125 0 -1.3125 0.578125q-0.484375 0.5625 -0.484375 1.890625q0 1.46875 0.5 2.078125q0.5 0.609375 1.328125 0.609375q0.625 0 1.015625 -0.34375q0.40625 -0.359375 0.578125 -1.234375l2.15625 0.375q-0.34375 1.484375 -1.296875 2.25q-0.953125 0.75 -2.546875 0.75q-1.828125 0 -2.90625 -1.140625q-1.078125 -1.15625 -1.078125 -3.1875q0 -2.0625 1.078125 -3.203125q1.09375 -1.140625 2.9375 -1.140625q1.515625 0 2.40625 0.65625q0.90625 0.640625 1.296875 1.984375zm5.4609375 -2.453125l0 1.75l-1.5 0l0 3.34375q0 1.015625 0.046875 1.1875q0.046875 0.15625 0.1875 0.265625q0.15625 0.109375 0.375 0.109375q0.3125 0 0.890625 -0.203125l0.1875 1.703125q-0.765625 0.328125 -1.734375 0.328125q-0.59375 0 -1.078125 -0.203125q-0.46875 -0.203125 -0.703125 -0.515625q-0.21875 -0.3125 -0.296875 -0.859375q-0.078125 -0.375 -0.078125 -1.546875l0 -3.609375l-1.0 0l0 -1.75l1.0 0l0 -1.65625l2.203125 -1.28125l0 2.9375l1.5 0zm6.328125 5.65625l2.1875 0.359375q-0.421875 1.203125 -1.328125 1.84375q-0.90625 0.625 -2.28125 0.625q-2.15625 0 -3.203125 -1.421875q-0.8125 -1.125 -0.8125 -2.859375q0 -2.0625 1.078125 -3.21875q1.078125 -1.171875 2.71875 -1.171875q1.859375 0 2.921875 1.21875q1.078125 1.21875 1.03125 3.75l-5.5 0q0.015625 0.96875 0.515625 1.515625q0.515625 0.546875 1.28125 0.546875q0.515625 0 0.859375 -0.28125q0.359375 -0.28125 0.53125 -0.90625zm0.125 -2.21875q-0.015625 -0.953125 -0.484375 -1.453125q-0.46875 -0.5 -1.140625 -0.5q-0.71875 0 -1.1875 0.53125q-0.46875 0.515625 -0.46875 1.421875l3.28125 0zm11.585953 4.859375l-2.046875 0l0 -1.21875q-0.5 0.703125 -1.203125 1.0625q-0.6875 0.34375 -1.390625 0.34375q-1.421875 0 -2.4531403 -1.15625q-1.015625 -1.15625 -1.015625 -3.21875q0 -2.109375 0.984375 -3.203125q1.0000153 -1.09375 2.5156403 -1.09375q1.390625 0 2.40625 1.15625l0 -4.125l2.203125 0l0 11.453125zm-5.859375 -4.328125q0 1.328125 0.359375 1.921875q0.53125 0.859375 1.484375 0.859375q0.765625 0 1.296875 -0.640625q0.53125 -0.65625 0.53125 -1.9375q0 -1.421875 -0.515625 -2.046875q-0.515625 -0.640625 -1.328125 -0.640625q-0.78125 0 -1.3125 0.625q-0.515625 0.625 -0.515625 1.859375z" fill-rule="nonzero"/><path fill="#000000" d="m267.39496 50.157597l-1.453125 0l0 -5.515625q-0.796875 0.75 -1.890625 1.109375l0 -1.328125q0.578125 -0.1875 1.234375 -0.703125q0.671875 -0.53125 0.921875 -1.21875l1.1875 0l0 7.65625z" fill-rule="nonzero"/><path fill="#000000" fill-opacity="0.0" d="m209.81905 71.61429c0 -3.0963364 2.5100708 -5.606415 5.606415 -5.606415l22.424973 0c1.486908 0 2.912918 0.59067535 3.964325 1.6420822c1.0514069 1.0514069 1.6420898 2.477417 1.6420898 3.9643326l0 81.35411c0 3.0963287 -2.510086 5.6063995 -5.606415 5.6063995l-22.424973 0c-3.096344 0 -5.606415 -2.5100708 -5.606415 -5.6063995z" fill-rule="evenodd"/><path stroke="#000000" stroke-width="2.0" stroke-linejoin="round" stroke-linecap="butt" d="m209.81905 71.61429c0 -3.0963364 2.5100708 -5.606415 5.606415 -5.606415l22.424973 0c1.486908 0 2.912918 0.59067535 3.964325 1.6420822c1.0514069 1.0514069 1.6420898 2.477417 1.6420898 3.9643326l0 81.35411c0 3.0963287 -2.510086 5.6063995 -5.606415 5.6063995l-22.424973 0c-3.096344 0 -5.606415 -2.5100708 -5.606415 -5.6063995z" fill-rule="evenodd"/><path fill="#000000" fill-opacity="0.0" d="m378.80975 71.61429c0 -3.0963364 2.5100708 -5.606415 5.606415 -5.606415l22.424957 0c1.486908 0 2.9129333 0.59067535 3.964325 1.6420822c1.0514221 1.0514069 1.6420898 2.477417 1.6420898 3.9643326l0 81.35411c0 3.0963287 -2.5100708 5.6063995 -5.606415 5.6063995l-22.424957 0c-3.096344 0 -5.606415 -2.5100708 -5.606415 -5.6063995z" fill-rule="evenodd"/><path stroke="#000000" stroke-width="2.0" stroke-linejoin="round" stroke-linecap="butt" d="m378.80975 71.61429c0 -3.0963364 2.5100708 -5.606415 5.606415 -5.606415l22.424957 0c1.486908 0 2.9129333 0.59067535 3.964325 1.6420822c1.0514221 1.0514069 1.6420898 2.477417 1.6420898 3.9643326l0 81.35411c0 3.0963287 -2.5100708 5.6063995 -5.606415 5.6063995l-22.424957 0c-3.096344 0 -5.606415 -2.5100708 -5.606415 -5.6063995z" fill-rule="evenodd"/><path fill="#000000" fill-opacity="0.0" d="m547.79803 71.61429c0 -3.0963364 2.5100708 -5.606415 5.6064453 -5.606415l22.424927 0c1.4869385 0 2.9129639 0.59067535 3.9643555 1.6420822c1.0513916 1.0514069 1.6420898 2.477417 1.6420898 3.9643326l0 81.35411c0 3.0963287 -2.5100708 5.6063995 -5.6064453 5.6063995l-22.424927 0c-3.0963745 0 -5.6064453 -2.5100708 -5.6064453 -5.6063995z" fill-rule="evenodd"/><path stroke="#000000" stroke-width="2.0" stroke-linejoin="round" stroke-linecap="butt" d="m547.79803 71.61429c0 -3.0963364 2.5100708 -5.606415 5.6064453 -5.606415l22.424927 0c1.4869385 0 2.9129639 0.59067535 3.9643555 1.6420822c1.0513916 1.0514069 1.6420898 2.477417 1.6420898 3.9643326l0 81.35411c0 3.0963287 -2.5100708 5.6063995 -5.6064453 5.6063995l-22.424927 0c-3.0963745 0 -5.6064453 -2.5100708 -5.6064453 -5.6063995z" fill-rule="evenodd"/><path fill="#000000" fill-opacity="0.0" d="m716.78754 71.61429c0 -3.0963364 2.5100708 -5.606415 5.6064453 -5.606415l22.424927 0c1.4869385 0 2.9129639 0.59067535 3.9643555 1.6420822c1.0513916 1.0514069 1.6420898 2.477417 1.6420898 3.9643326l0 81.35411c0 3.0963287 -2.5100708 5.6063995 -5.6064453 5.6063995l-22.424927 0c-3.0963745 0 -5.6064453 -2.5100708 -5.6064453 -5.6063995z" fill-rule="evenodd"/><path stroke="#000000" stroke-width="2.0" stroke-linejoin="round" stroke-linecap="butt" d="m716.78754 71.61429c0 -3.0963364 2.5100708 -5.606415 5.6064453 -5.606415l22.424927 0c1.4869385 0 2.9129639 0.59067535 3.9643555 1.6420822c1.0513916 1.0514069 1.6420898 2.477417 1.6420898 3.9643326l0 81.35411c0 3.0963287 -2.5100708 5.6063995 -5.6064453 5.6063995l-22.424927 0c-3.0963745 0 -5.6064453 -2.5100708 -5.6064453 -5.6063995z" fill-rule="evenodd"/><path fill="#000000" fill-opacity="0.0" d="m325.81644 0.5975934l139.62204 0l0 38.771652l-139.62204 0z" fill-rule="evenodd"/><path fill="#000000" d="m361.68762 21.223219l2.25 -0.21875q0.203125 1.140625 0.828125 1.671875q0.625 0.53125 1.671875 0.53125q1.125 0 1.6875 -0.46875q0.5625 -0.484375 0.5625 -1.109375q0 -0.40625 -0.234375 -0.6875q-0.234375 -0.296875 -0.828125 -0.5q-0.40625 -0.140625 -1.859375 -0.5q-1.859375 -0.46875 -2.609375 -1.140625q-1.046875 -0.9375 -1.046875 -2.296875q0 -0.875 0.484375 -1.640625q0.5 -0.765625 1.4375 -1.15625q0.9375 -0.40625 2.25 -0.40625q2.15625 0 3.25 0.953125q1.09375 0.9375 1.140625 2.515625l-2.3125 0.109375q-0.140625 -0.890625 -0.640625 -1.265625q-0.484375 -0.390625 -1.453125 -0.390625q-1.015625 0 -1.578125 0.40625q-0.375 0.265625 -0.375 0.71875q0 0.40625 0.34375 0.6875q0.4375 0.375 2.125 0.78125q1.6875 0.390625 2.5 0.8125q0.8125 0.421875 1.265625 1.171875q0.453125 0.734375 0.453125 1.8125q0 0.984375 -0.546875 1.84375q-0.546875 0.859375 -1.546875 1.28125q-1.0 0.421875 -2.484375 0.421875q-2.171875 0 -3.34375 -1.0q-1.15625 -1.015625 -1.390625 -2.9375zm11.25 -5.6875l0 -2.03125l2.1875 0l0 2.03125l-2.1875 0zm0 9.421875l0 -8.296875l2.1875 0l0 8.296875l-2.1875 0zm4.2421875 0.546875l2.5 0.3125q0.0625 0.4375 0.296875 0.59375q0.3125 0.234375 0.984375 0.234375q0.859375 0 1.28125 -0.25q0.296875 -0.171875 0.4375 -0.5625q0.109375 -0.265625 0.109375 -1.015625l0 -1.203125q-0.984375 1.34375 -2.484375 1.34375q-1.671875 0 -2.65625 -1.421875q-0.765625 -1.109375 -0.765625 -2.78125q0 -2.078125 1.0 -3.171875q1.015625 -1.109375 2.5 -1.109375q1.546875 0 2.546875 1.34375l0 -1.15625l2.046875 0l0 7.4375q0 1.484375 -0.25 2.203125q-0.234375 0.734375 -0.671875 1.140625q-0.4375 0.421875 -1.171875 0.65625q-0.71875 0.234375 -1.84375 0.234375q-2.109375 0 -3.0 -0.734375q-0.875 -0.71875 -0.875 -1.828125q0 -0.109375 0.015625 -0.265625zm1.953125 -4.875q0 1.328125 0.515625 1.9375q0.515625 0.609375 1.265625 0.609375q0.796875 0 1.34375 -0.625q0.5625 -0.625 0.5625 -1.859375q0 -1.296875 -0.53125 -1.921875q-0.53125 -0.625 -1.34375 -0.625q-0.78125 0 -1.296875 0.625q-0.515625 0.609375 -0.515625 1.859375zm7.8515625 -3.96875l2.03125 0l0 1.125q1.0781555 -1.3125 2.5781555 -1.3125q0.796875 0 1.375 0.328125q0.59375 0.328125 0.96875 0.984375q0.546875 -0.65625 1.171875 -0.984375q0.640625 -0.328125 1.359375 -0.328125q0.921875 0 1.546875 0.375q0.640625 0.359375 0.953125 1.078125q0.21875 0.53125 0.21875 1.71875l0 5.3125l-2.1875 0l0 -4.75q0 -1.234375 -0.234375 -1.59375q-0.296875 -0.46875 -0.9375 -0.46875q-0.453125 0 -0.859375 0.28125q-0.40625 0.28125 -0.59375 0.828125q-0.171875 0.546875 -0.171875 1.71875l0 3.984375l-2.203125 0l0 -4.546875q0 -1.21875 -0.125 -1.5625q-0.109375 -0.359375 -0.359375 -0.53125q-0.234375 -0.171875 -0.65625 -0.171875q-0.515625 0 -0.921875 0.28125q-0.40628052 0.265625 -0.5781555 0.78125q-0.171875 0.515625 -0.171875 1.71875l0 4.03125l-2.203125 0l0 -8.296875zm13.882843 4.03125q0 -1.09375 0.53125 -2.109375q0.546875 -1.03125 1.53125 -1.5625q1.0 -0.546875 2.21875 -0.546875q1.875 0 3.078125 1.21875q1.203125 1.21875 1.203125 3.09375q0 1.875 -1.21875 3.125q-1.203125 1.234375 -3.046875 1.234375q-1.140625 0 -2.1875 -0.515625q-1.03125 -0.515625 -1.578125 -1.515625q-0.53125 -1.0 -0.53125 -2.421875zm2.25 0.109375q0 1.234375 0.578125 1.890625q0.59375 0.65625 1.453125 0.65625q0.859375 0 1.4375 -0.65625q0.59375 -0.65625 0.59375 -1.90625q0 -1.21875 -0.59375 -1.875q-0.578125 -0.65625 -1.4375 -0.65625q-0.859375 0 -1.453125 0.65625q-0.578125 0.65625 -0.578125 1.890625zm8.0390625 -5.265625l0 -2.03125l2.1875 0l0 2.03125l-2.1875 0zm0 9.421875l0 -8.296875l2.1875 0l0 8.296875l-2.1875 0zm12.0546875 0l-2.046875 0l0 -1.21875q-0.5 0.703125 -1.203125 1.0625q-0.6875 0.34375 -1.390625 0.34375q-1.421875 0 -2.453125 -1.15625q-1.015625 -1.15625 -1.015625 -3.21875q0 -2.109375 0.984375 -3.203125q1.0 -1.09375 2.515625 -1.09375q1.390625 0 2.40625 1.15625l0 -4.125l2.203125 0l0 11.453125zm-5.859375 -4.328125q0 1.328125 0.359375 1.921875q0.53125 0.859375 1.484375 0.859375q0.765625 0 1.296875 -0.640625q0.53125 -0.65625 0.53125 -1.9375q0 -1.421875 -0.515625 -2.046875q-0.515625 -0.640625 -1.328125 -0.640625q-0.78125 0 -1.3125 0.625q-0.515625 0.625 -0.515625 1.859375z" fill-rule="nonzero"/><path fill="#000000" d="m428.4064 30.957594l-1.453125 0l0 -5.515625q-0.796875 0.75 -1.890625 1.109375l0 -1.328125q0.578125 -0.1875 1.234375 -0.703125q0.671875 -0.53125 0.921875 -1.21875l1.1875 0l0 7.65625z" fill-rule="nonzero"/><path fill="#000000" fill-opacity="0.0" d="m495.28098 0.5975934l139.62204 0l0 58.173225l-139.62204 0z" fill-rule="evenodd"/><path fill="#000000" d="m547.6116 24.957594l0 -11.453125l7.84375 0l0 1.9375l-5.53125 0l0 2.703125l4.78125 0l0 1.9375l-4.78125 0l0 4.875l-2.3125 0zm15.195251 0l0 -1.25q-0.453125 0.671875 -1.1875 1.0625q-0.734375 0.375 -1.5625 0.375q-0.82806396 0 -1.499939 -0.359375q-0.65625 -0.375 -0.953125 -1.03125q-0.296875 -0.671875 -0.296875 -1.84375l0 -5.25l2.187439 0l0 3.8125q0 1.75 0.125 2.140625q0.125 0.390625 0.4375 0.625q0.328125 0.234375 0.8125 0.234375q0.5625 0 1.0 -0.3125q0.453125 -0.3125 0.609375 -0.765625q0.171875 -0.453125 0.171875 -2.234375l0 -3.5l2.203125 0l0 8.296875l-2.046875 0zm4.3203125 0l0 -11.453125l2.1875 0l0 11.453125l-2.1875 0zm4.4453125 0l0 -11.453125l2.1875 0l0 11.453125l-2.1875 0zm3.3984375 -8.296875l2.34375 0l1.984375 5.890625l1.9375 -5.890625l2.265625 0l-2.921875 7.984375l-0.53125 1.453125q-0.28125 0.71875 -0.546875 1.09375q-0.265625 0.390625 -0.609375 0.625q-0.328125 0.25 -0.828125 0.375q-0.5 0.140625 -1.125 0.140625q-0.625 0 -1.234375 -0.140625l-0.203125 -1.71875q0.515625 0.109375 0.9375 0.109375q0.765625 0 1.125 -0.453125q0.375 -0.453125 0.5625 -1.140625l-3.15625 -8.328125z" fill-rule="nonzero"/><path fill="#000000" d="m530.5116 38.313847l-2.171875 0.390625q-0.109375 -0.65625 -0.5 -0.984375q-0.375 -0.328125 -1.0 -0.328125q-0.8125 0 -1.3125 0.578125q-0.484375 0.5625 -0.484375 1.890625q0 1.46875 0.5 2.078125q0.5 0.609375 1.328125 0.609375q0.625 0 1.015625 -0.34375q0.40625 -0.359375 0.578125 -1.234375l2.15625 0.375q-0.34375 1.484375 -1.296875 2.25q-0.953125 0.75 -2.546875 0.75q-1.828125 0 -2.90625 -1.140625q-1.078125 -1.15625 -1.078125 -3.1875q0 -2.0625 1.078125 -3.203125q1.09375 -1.140625 2.9375 -1.140625q1.515625 0 2.40625 0.65625q0.90625 0.640625 1.296875 1.984375zm1.1484375 1.578125q0 -1.09375 0.53125 -2.109375q0.546875 -1.03125 1.53125 -1.5625q1.0 -0.546875 2.21875 -0.546875q1.875 0 3.078125 1.21875q1.203125 1.21875 1.203125 3.09375q0 1.875 -1.21875 3.125q-1.203125 1.234375 -3.046875 1.234375q-1.140625 0 -2.1875 -0.515625q-1.03125 -0.515625 -1.578125 -1.515625q-0.53125 -1.0 -0.53125 -2.421875zm2.25 0.109375q0 1.234375 0.578125 1.890625q0.59375 0.65625 1.453125 0.65625q0.859375 0 1.4375 -0.65625q0.59375 -0.65625 0.59375 -1.90625q0 -1.21875 -0.59375 -1.875q-0.578125 -0.65625 -1.4375 -0.65625q-0.859375 0 -1.453125 0.65625q-0.578125 0.65625 -0.578125 1.890625zm15.5859375 4.15625l-2.203125 0l0 -4.234375q0 -1.34375 -0.140625 -1.734375q-0.140625 -0.40625 -0.453125 -0.625q-0.3125 -0.21875 -0.765625 -0.21875q-0.5625 0 -1.015625 0.3125q-0.453125 0.3125 -0.625 0.828125q-0.171875 0.515625 -0.171875 1.90625l0 3.765625l-2.1875 0l0 -8.296875l2.03125 0l0 1.21875q1.09375 -1.40625 2.734375 -1.40625q0.734375 0 1.328125 0.265625q0.609375 0.25 0.90625 0.65625q0.3125 0.40625 0.4375 0.921875q0.125 0.515625 0.125 1.484375l0 5.15625zm9.7734375 0l-2.203125 0l0 -4.234375q0 -1.34375 -0.140625 -1.734375q-0.140625 -0.40625 -0.453125 -0.625q-0.3125 -0.21875 -0.765625 -0.21875q-0.5625 0 -1.015625 0.3125q-0.453125 0.3125 -0.625 0.828125q-0.171875 0.515625 -0.171875 1.90625l0 3.765625l-2.1875 0l0 -8.296875l2.03125 0l0 1.21875q1.09375 -1.40625 2.734375 -1.40625q0.734375 0 1.328125 0.265625q0.609375 0.25 0.90625 0.65625q0.3125 0.40625 0.4375 0.921875q0.125 0.515625 0.125 1.484375l0 5.15625zm7.0234375 -2.640625l2.1875 0.359375q-0.421875 1.203125 -1.328125 1.84375q-0.90625 0.625 -2.28125 0.625q-2.15625 0 -3.203125 -1.421875q-0.8125 -1.125 -0.8125 -2.859375q0 -2.0625 1.078125 -3.21875q1.078125 -1.171875 2.71875 -1.171875q1.859375 0 2.921875 1.21875q1.078125 1.21875 1.03125 3.75l-5.5 0q0.015625 0.96875 0.515625 1.515625q0.515625 0.546875 1.28125 0.546875q0.515625 0 0.859375 -0.28125q0.359375 -0.28125 0.53125 -0.90625zm0.125 -2.21875q-0.015625 -0.953125 -0.484375 -1.453125q-0.46875 -0.5 -1.140625 -0.5q-0.71875 0 -1.1875 0.53125q-0.46875 0.515625 -0.46875 1.421875l3.28125 0zm11.2109375 -0.984375l-2.171875 0.390625q-0.109375 -0.65625 -0.5 -0.984375q-0.375 -0.328125 -1.0 -0.328125q-0.8125 0 -1.3125 0.578125q-0.484375 0.5625 -0.484375 1.890625q0 1.46875 0.5 2.078125q0.5 0.609375 1.328125 0.609375q0.625 0 1.015625 -0.34375q0.40625 -0.359375 0.578125 -1.234375l2.15625 0.375q-0.34375 1.484375 -1.296875 2.25q-0.953125 0.75 -2.546875 0.75q-1.828125 0 -2.90625 -1.140625q-1.078125 -1.15625 -1.078125 -3.1875q0 -2.0625 1.078125 -3.203125q1.09375 -1.140625 2.9375 -1.140625q1.515625 0 2.40625 0.65625q0.90625 0.640625 1.296875 1.984375zm5.4609375 -2.453125l0 1.75l-1.5 0l0 3.34375q0 1.015625 0.046875 1.1875q0.046875 0.15625 0.1875 0.265625q0.15625 0.109375 0.375 0.109375q0.3125 0 0.890625 -0.203125l0.1875 1.703125q-0.765625 0.328125 -1.734375 0.328125q-0.59375 0 -1.078125 -0.203125q-0.46875 -0.203125 -0.703125 -0.515625q-0.21875 -0.3125 -0.296875 -0.859375q-0.078125 -0.375 -0.078125 -1.546875l0 -3.609375l-1.0 0l0 -1.75l1.0 0l0 -1.65625l2.203125 -1.28125l0 2.9375l1.5 0zm6.328125 5.65625l2.1875 0.359375q-0.421875 1.203125 -1.328125 1.84375q-0.90625 0.625 -2.28125 0.625q-2.15625 0 -3.203125 -1.421875q-0.8125 -1.125 -0.8125 -2.859375q0 -2.0625 1.078125 -3.21875q1.078125 -1.171875 2.71875 -1.171875q1.859375 0 2.921875 1.21875q1.078125 1.21875 1.03125 3.75l-5.5 0q0.015625 0.96875 0.515625 1.515625q0.515625 0.546875 1.28125 0.546875q0.515625 0 0.859375 -0.28125q0.359375 -0.28125 0.53125 -0.90625zm0.125 -2.21875q-0.015625 -0.953125 -0.484375 -1.453125q-0.46875 -0.5 -1.140625 -0.5q-0.71875 0 -1.1875 0.53125q-0.46875 0.515625 -0.46875 1.421875l3.28125 0zm11.5859375 4.859375l-2.046875 0l0 -1.21875q-0.5 0.703125 -1.203125 1.0625q-0.6875 0.34375 -1.390625 0.34375q-1.421875 0 -2.453125 -1.15625q-1.015625 -1.15625 -1.015625 -3.21875q0 -2.109375 0.984375 -3.203125q1.0 -1.09375 2.515625 -1.09375q1.390625 0 2.40625 1.15625l0 -4.125l2.203125 0l0 11.453125zm-5.859375 -4.328125q0 1.328125 0.359375 1.921875q0.53125 0.859375 1.484375 0.859375q0.765625 0 1.296875 -0.640625q0.53125 -0.65625 0.53125 -1.9375q0 -1.421875 -0.515625 -2.046875q-0.515625 -0.640625 -1.328125 -0.640625q-0.78125 0 -1.3125 0.625q-0.515625 0.625 -0.515625 1.859375z" fill-rule="nonzero"/><path fill="#000000" d="m607.5272 48.79822l0 1.359375l-5.125 0q0.078125 -0.765625 0.5 -1.453125q0.421875 -0.703125 1.640625 -1.828125q0.984375 -0.921875 1.21875 -1.25q0.296875 -0.453125 0.296875 -0.90625q0 -0.484375 -0.265625 -0.75q-0.265625 -0.265625 -0.71875 -0.265625q-0.453125 0 -0.734375 0.28125q-0.265625 0.28125 -0.3125 0.921875l-1.453125 -0.15625q0.125 -1.203125 0.8125 -1.71875q0.6875 -0.53125 1.71875 -0.53125q1.125 0 1.765625 0.609375q0.65625 0.609375 0.65625 1.515625q0 0.515625 -0.1875 0.984375q-0.1875 0.453125 -0.578125 0.96875q-0.265625 0.34375 -0.96875 0.984375q-0.6875 0.625 -0.875 0.828125q-0.171875 0.203125 -0.296875 0.40625l2.90625 0z" fill-rule="nonzero"/><path fill="#000000" fill-opacity="0.0" d="m663.7954 0.5975934l139.62207 0l0 38.771652l-139.62207 0z" fill-rule="evenodd"/><path fill="#000000" d="m699.6666 21.223219l2.25 -0.21875q0.203125 1.140625 0.828125 1.671875q0.625 0.53125 1.671875 0.53125q1.125 0 1.6875 -0.46875q0.5625 -0.484375 0.5625 -1.109375q0 -0.40625 -0.234375 -0.6875q-0.234375 -0.296875 -0.828125 -0.5q-0.40625 -0.140625 -1.859375 -0.5q-1.859375 -0.46875 -2.609375 -1.140625q-1.046875 -0.9375 -1.046875 -2.296875q0 -0.875 0.484375 -1.640625q0.5 -0.765625 1.4375 -1.15625q0.9375 -0.40625 2.25 -0.40625q2.15625 0 3.25 0.953125q1.09375 0.9375 1.140625 2.515625l-2.3125 0.109375q-0.140625 -0.890625 -0.640625 -1.265625q-0.484375 -0.390625 -1.453125 -0.390625q-1.015625 0 -1.578125 0.40625q-0.375 0.265625 -0.375 0.71875q0 0.40625 0.34375 0.6875q0.4375 0.375 2.125 0.78125q1.6875 0.390625 2.5 0.8125q0.8125 0.421875 1.265625 1.171875q0.453125 0.734375 0.453125 1.8125q0 0.984375 -0.546875 1.84375q-0.546875 0.859375 -1.546875 1.28125q-1.0 0.421875 -2.484375 0.421875q-2.171875 0 -3.34375 -1.0q-1.15625 -1.015625 -1.390625 -2.9375zm11.25 -5.6875l0 -2.03125l2.1875 0l0 2.03125l-2.1875 0zm0 9.421875l0 -8.296875l2.1875 0l0 8.296875l-2.1875 0zm4.2421875 0.546875l2.5 0.3125q0.0625 0.4375 0.296875 0.59375q0.3125 0.234375 0.984375 0.234375q0.859375 0 1.28125 -0.25q0.296875 -0.171875 0.4375 -0.5625q0.109375 -0.265625 0.109375 -1.015625l0 -1.203125q-0.984375 1.34375 -2.484375 1.34375q-1.671875 0 -2.65625 -1.421875q-0.765625 -1.109375 -0.765625 -2.78125q0 -2.078125 1.0 -3.171875q1.015625 -1.109375 2.5 -1.109375q1.546875 0 2.546875 1.34375l0 -1.15625l2.046875 0l0 7.4375q0 1.484375 -0.25 2.203125q-0.234375 0.734375 -0.671875 1.140625q-0.4375 0.421875 -1.171875 0.65625q-0.71875 0.234375 -1.84375 0.234375q-2.109375 0 -3.0 -0.734375q-0.875 -0.71875 -0.875 -1.828125q0 -0.109375 0.015625 -0.265625zm1.953125 -4.875q0 1.328125 0.515625 1.9375q0.515625 0.609375 1.265625 0.609375q0.796875 0 1.34375 -0.625q0.5625 -0.625 0.5625 -1.859375q0 -1.296875 -0.53125 -1.921875q-0.53125 -0.625 -1.34375 -0.625q-0.78125 0 -1.296875 0.625q-0.515625 0.609375 -0.515625 1.859375zm7.8515625 -3.96875l2.03125 0l0 1.125q1.078125 -1.3125 2.578125 -1.3125q0.796875 0 1.375 0.328125q0.59375 0.328125 0.96875 0.984375q0.546875 -0.65625 1.171875 -0.984375q0.640625 -0.328125 1.359375 -0.328125q0.921875 0 1.546875 0.375q0.640625 0.359375 0.953125 1.078125q0.21875 0.53125 0.21875 1.71875l0 5.3125l-2.1875 0l0 -4.75q0 -1.234375 -0.234375 -1.59375q-0.296875 -0.46875 -0.9375 -0.46875q-0.453125 0 -0.859375 0.28125q-0.40625 0.28125 -0.59375 0.828125q-0.171875 0.546875 -0.171875 1.71875l0 3.984375l-2.203125 0l0 -4.546875q0 -1.21875 -0.125 -1.5625q-0.109375 -0.359375 -0.359375 -0.53125q-0.234375 -0.171875 -0.65625 -0.171875q-0.515625 0 -0.921875 0.28125q-0.40625 0.265625 -0.578125 0.78125q-0.171875 0.515625 -0.171875 1.71875l0 4.03125l-2.203125 0l0 -8.296875zm13.8828125 4.03125q0 -1.09375 0.53125 -2.109375q0.546875 -1.03125 1.53125 -1.5625q1.0 -0.546875 2.21875 -0.546875q1.875 0 3.078125 1.21875q1.203125 1.21875 1.203125 3.09375q0 1.875 -1.21875 3.125q-1.203125 1.234375 -3.046875 1.234375q-1.140625 0 -2.1875 -0.515625q-1.03125 -0.515625 -1.578125 -1.515625q-0.53125 -1.0 -0.53125 -2.421875zm2.25 0.109375q0 1.234375 0.578125 1.890625q0.59375 0.65625 1.453125 0.65625q0.859375 0 1.4375 -0.65625q0.59375 -0.65625 0.59375 -1.90625q0 -1.21875 -0.59375 -1.875q-0.578125 -0.65625 -1.4375 -0.65625q-0.859375 0 -1.453125 0.65625q-0.578125 0.65625 -0.578125 1.890625zm8.0390625 -5.265625l0 -2.03125l2.1875 0l0 2.03125l-2.1875 0zm0 9.421875l0 -8.296875l2.1875 0l0 8.296875l-2.1875 0zm12.0546875 0l-2.046875 0l0 -1.21875q-0.5 0.703125 -1.203125 1.0625q-0.6875 0.34375 -1.390625 0.34375q-1.421875 0 -2.453125 -1.15625q-1.015625 -1.15625 -1.015625 -3.21875q0 -2.109375 0.984375 -3.203125q1.0 -1.09375 2.515625 -1.09375q1.390625 0 2.40625 1.15625l0 -4.125l2.203125 0l0 11.453125zm-5.859375 -4.328125q0 1.328125 0.359375 1.921875q0.53125 0.859375 1.484375 0.859375q0.765625 0 1.296875 -0.640625q0.53125 -0.65625 0.53125 -1.9375q0 -1.421875 -0.515625 -2.046875q-0.515625 -0.640625 -1.328125 -0.640625q-0.78125 0 -1.3125 0.625q-0.515625 0.625 -0.515625 1.859375z" fill-rule="nonzero"/><path fill="#000000" d="m767.5885 29.598219l0 1.359375l-5.125 0q0.078125 -0.765625 0.5 -1.453125q0.421875 -0.703125 1.640625 -1.828125q0.984375 -0.921875 1.21875 -1.25q0.296875 -0.453125 0.296875 -0.90625q0 -0.484375 -0.265625 -0.75q-0.265625 -0.265625 -0.71875 -0.265625q-0.453125 0 -0.734375 0.28125q-0.265625 0.28125 -0.3125 0.921875l-1.453125 -0.15625q0.125 -1.203125 0.8125 -1.71875q0.6875 -0.53125 1.71875 -0.53125q1.125 0 1.765625 0.609375q0.65625 0.609375 0.65625 1.515625q0 0.515625 -0.1875 0.984375q-0.1875 0.453125 -0.578125 0.96875q-0.265625 0.34375 -0.96875 0.984375q-0.6875 0.625 -0.875 0.828125q-0.171875 0.203125 -0.296875 0.40625l2.90625 0z" fill-rule="nonzero"/><path fill="#000000" fill-opacity="0.0" d="m133.53558 91.91178l33.637787 0l0 38.77166l-33.637787 0z" fill-rule="evenodd"/><path fill="#06a77d" d="m145.09666 116.27178l4.421875 -5.96875l-3.90625 -5.484375l1.8125 0l2.078125 2.9375q0.640625 0.90625 0.921875 1.40625q0.375 -0.625 0.90625 -1.3125l2.296875 -3.03125l1.65625 0l-4.03125 5.390625l4.34375 6.0625l-1.875 0l-2.890625 -4.09375q-0.234375 -0.34375 -0.5 -0.765625q-0.375 0.625 -0.546875 0.859375l-2.875 4.0l-1.8125 0z" fill-rule="nonzero"/><path fill="#000000" fill-opacity="0.0" d="m167.17337 111.29761l40.157486 0" fill-rule="evenodd"/><path stroke="#000000" stroke-width="2.0" stroke-linejoin="round" stroke-linecap="butt" d="m167.17337 111.297615l28.157486 0" fill-rule="evenodd"/><path fill="#000000" stroke="#000000" stroke-width="2.0" stroke-linecap="butt" d="m195.33086 114.60108l9.076187 -3.3034668l-9.076187 -3.3034668z" fill-rule="evenodd"/><path fill="#000000" fill-opacity="0.0" d="m243.45685 111.29761l135.65353 0" fill-rule="evenodd"/><path stroke="#000000" stroke-width="2.0" stroke-linejoin="round" stroke-linecap="butt" d="m243.45683 111.297615l123.65358 0" fill-rule="evenodd"/><path fill="#000000" stroke="#000000" stroke-width="2.0" stroke-linecap="butt" d="m367.1104 114.60108l9.076172 -3.3034668l-9.076172 -3.3034668z" fill-rule="evenodd"/><path fill="#000000" fill-opacity="0.0" d="m412.2954 111.29761l135.65356 0" fill-rule="evenodd"/><path stroke="#000000" stroke-width="2.0" stroke-linejoin="round" stroke-linecap="butt" d="m412.29544 111.297615l123.653534 0" fill-rule="evenodd"/><path fill="#000000" stroke="#000000" stroke-width="2.0" stroke-linecap="butt" d="m535.949 114.60108l9.076233 -3.3034668l-9.076233 -3.3034668z" fill-rule="evenodd"/><path fill="#000000" fill-opacity="0.0" d="m581.2836 111.29761l135.6535 0" fill-rule="evenodd"/><path stroke="#000000" stroke-width="2.0" stroke-linejoin="round" stroke-linecap="butt" d="m581.2836 111.297615l123.653564 0" fill-rule="evenodd"/><path fill="#000000" stroke="#000000" stroke-width="2.0" stroke-linecap="butt" d="m704.9372 114.60108l9.076172 -3.3034668l-9.076172 -3.3034668z" fill-rule="evenodd"/><path fill="#000000" fill-opacity="0.0" d="m750.42535 111.29761l50.70868 0" fill-rule="evenodd"/><path stroke="#000000" stroke-width="2.0" stroke-linejoin="round" stroke-linecap="butt" d="m750.42535 111.297615l38.70868 0" fill-rule="evenodd"/><path fill="#000000" stroke="#000000" stroke-width="2.0" stroke-linecap="butt" d="m789.13403 114.60108l9.076172 -3.3034668l-9.076172 -3.3034668z" fill-rule="evenodd"/><path fill="#000000" fill-opacity="0.0" d="m243.45685 72.52493l135.65353 0l0 38.771652l-135.65353 0z" fill-rule="evenodd"/><path fill="#d5c67a" d="m300.24844 96.88493l4.421875 -5.96875l-3.90625 -5.484375l1.8125 0l2.078125 2.9375q0.640625 0.90625 0.921875 1.40625q0.375 -0.625 0.90625 -1.3125l2.296875 -3.03125l1.65625 0l-4.03125 5.390625l4.34375 6.0625l-1.875 0l-2.890625 -4.09375q-0.234375 -0.34375 -0.5 -0.765625q-0.375 0.625 -0.546875 0.859375l-2.875 4.0l-1.8125 0zm19.34375 -11.453125l1.515625 0l0 6.609375q0 1.734375 -0.390625 2.75q-0.390625 1.015625 -1.40625 1.65625q-1.015625 0.640625 -2.671875 0.640625q-1.609375 0 -2.640625 -0.5625q-1.015625 -0.5625 -1.453125 -1.609375q-0.4375 -1.046875 -0.4375 -2.875l0 -6.609375l1.515625 0l0 6.609375q0 1.484375 0.265625 2.203125q0.28125 0.703125 0.953125 1.09375q0.6875 0.375 1.65625 0.375q1.671875 0 2.375 -0.75q0.71875 -0.765625 0.71875 -2.921875l0 -6.609375z" fill-rule="nonzero"/><path fill="#000000" fill-opacity="0.0" d="m412.37024 72.52493l135.6535 0l0 38.771652l-135.6535 0z" fill-rule="evenodd"/><path fill="#bd4089" d="m468.34933 88.58806l0 1.140625l-2.265625 0q1.046875 0.96875 1.046875 3.015625q0 2.21875 -1.140625 3.28125q-1.140625 1.046875 -2.765625 1.046875q-1.6875 0 -2.78125 -1.09375q-1.09375 -1.09375 -1.09375 -3.25q0 -2.203125 1.140625 -3.265625q1.140625 -1.0625 2.734375 -1.0625q0.59375 0 1.328125 0.1875l3.796875 0zm-5.140625 0.96875q-1.03125 0 -1.71875 0.796875q-0.6875 0.796875 -0.6875 2.390625q0 1.578125 0.671875 2.375q0.671875 0.796875 1.75 0.796875q1.140625 0 1.796875 -0.828125q0.671875 -0.84375 0.671875 -2.359375q0 -1.375 -0.609375 -2.265625q-0.609375 -0.90625 -1.875 -0.90625zm9.234375 10.703125q-1.171875 -1.46875 -1.984375 -3.4375q-0.796875 -1.984375 -0.796875 -4.09375q0 -1.859375 0.609375 -3.5625q0.703125 -1.96875 2.171875 -3.9375l1.0 0q-0.9375 1.625 -1.25 2.328125q-0.46875 1.078125 -0.75 2.25q-0.328125 1.453125 -0.328125 2.9375q0 3.75 2.328125 7.515625l-1.0 0zm1.65625 -3.375l4.421875 -5.96875l-3.90625 -5.484375l1.8125 0l2.078125 2.9375q0.640625 0.90625 0.921875 1.40625q0.375 -0.625 0.90625 -1.3125l2.296875 -3.03125l1.65625 0l-4.03125 5.390625l4.34375 6.0625l-1.875 0l-2.890625 -4.09375q-0.234375 -0.34375 -0.5 -0.765625q-0.375 0.625 -0.546875 0.859375l-2.875 4.0l-1.8125 0zm19.34375 -11.453125l1.515625 0l0 6.609375q0 1.734375 -0.390625 2.75q-0.390625 1.015625 -1.40625 1.65625q-1.015625 0.640625 -2.671875 0.640625q-1.609375 0 -2.640625 -0.5625q-1.015625 -0.5625 -1.453125 -1.609375q-0.4375 -1.046875 -0.4375 -2.875l0 -6.609375l1.515625 0l0 6.609375q0 1.484375 0.265625 2.203125q0.28125 0.703125 0.953125 1.09375q0.6875 0.375 1.65625 0.375q1.671875 0 2.375 -0.75q0.71875 -0.765625 0.71875 -2.921875l0 -6.609375zm4.7890625 14.828125l-1.015625 0q2.34375 -3.765625 2.34375 -7.515625q0 -1.46875 -0.34375 -2.921875q-0.265625 -1.171875 -0.734375 -2.25q-0.3125 -0.703125 -1.265625 -2.34375l1.015625 0q1.46875 1.96875 2.171875 3.9375q0.59375 1.703125 0.59375 3.5625q0 2.109375 -0.8125 4.09375q-0.796875 1.96875 -1.953125 3.4375z" fill-rule="nonzero"/><path fill="#000000" fill-opacity="0.0" d="m581.361 72.52493l135.65356 0l0 38.771652l-135.65356 0z" fill-rule="evenodd"/><path fill="#f1a208" d="m632.0042 88.58806l0 1.140625l-2.265625 0q1.046875 0.96875 1.046875 3.015625q0 2.21875 -1.140625 3.28125q-1.140625 1.046875 -2.765625 1.046875q-1.6875 0 -2.78125 -1.09375q-1.09375 -1.09375 -1.09375 -3.25q0 -2.203125 1.140625 -3.265625q1.140625 -1.0625 2.734375 -1.0625q0.59375 0 1.328125 0.1875l3.796875 0zm-5.140625 0.96875q-1.03125 0 -1.71875 0.796875q-0.6875 0.796875 -0.6875 2.390625q0 1.578125 0.671875 2.375q0.671875 0.796875 1.75 0.796875q1.140625 0 1.796875 -0.828125q0.671875 -0.84375 0.671875 -2.359375q0 -1.375 -0.609375 -2.265625q-0.609375 -0.90625 -1.875 -0.90625zm9.234375 10.703125q-1.171875 -1.46875 -1.984375 -3.4375q-0.796875 -1.984375 -0.796875 -4.09375q0 -1.859375 0.609375 -3.5625q0.703125 -1.96875 2.171875 -3.9375l1.0 0q-0.9375 1.625 -1.25 2.328125q-0.46875 1.078125 -0.75 2.25q-0.328125 1.453125 -0.328125 2.9375q0 3.75 2.328125 7.515625l-1.0 0zm1.65625 -3.375l4.421875 -5.96875l-3.90625 -5.484375l1.8125 0l2.078125 2.9375q0.640625 0.90625 0.921875 1.40625q0.375 -0.625 0.90625 -1.3125l2.296875 -3.03125l1.65625 0l-4.03125 5.390625l4.34375 6.0625l-1.875 0l-2.890625 -4.09375q-0.234375 -0.34375 -0.5 -0.765625q-0.375 0.625 -0.546875 0.859375l-2.875 4.0l-1.8125 0zm19.34375 -11.453125l1.515625 0l0 6.609375q0 1.734375 -0.390625 2.75q-0.390625 1.015625 -1.40625 1.65625q-1.015625 0.640625 -2.671875 0.640625q-1.609375 0 -2.640625 -0.5625q-1.015625 -0.5625 -1.453125 -1.609375q-0.4375 -1.046875 -0.4375 -2.875l0 -6.609375l1.515625 0l0 6.609375q0 1.484375 0.265625 2.203125q0.28125 0.703125 0.953125 1.09375q0.6875 0.375 1.65625 0.375q1.671875 0 2.375 -0.75q0.71875 -0.765625 0.71875 -2.921875l0 -6.609375zm4.7890625 14.828125l-1.015625 0q2.34375 -3.765625 2.34375 -7.515625q0 -1.46875 -0.34375 -2.921875q-0.265625 -1.171875 -0.734375 -2.25q-0.3125 -0.703125 -1.265625 -2.34375l1.015625 0q1.46875 1.96875 2.171875 3.9375q0.59375 1.703125 0.59375 3.5625q0 2.109375 -0.8125 4.09375q-0.796875 1.96875 -1.953125 3.4375zm7.859375 -3.375l-4.4375 -11.453125l1.640625 0l2.96875 8.3125q0.359375 1.0 0.609375 1.875q0.265625 -0.9375 0.609375 -1.875l3.09375 -8.3125l1.546875 0l-4.484375 11.453125l-1.546875 0z" fill-rule="nonzero"/><path fill="#000000" fill-opacity="0.0" d="m786.7277 89.84617l135.65356 0l0 38.771645l-135.65356 0z" fill-rule="evenodd"/><path fill="#2d728f" d="m827.1053 105.909294l0 1.140625l-2.265625 0q1.046875 0.96875 1.046875 3.015625q0 2.21875 -1.140625 3.28125q-1.140625 1.046875 -2.765625 1.046875q-1.6875 0 -2.78125 -1.09375q-1.09375 -1.09375 -1.09375 -3.25q0 -2.203125 1.140625 -3.265625q1.140625 -1.0625 2.734375 -1.0625q0.59375 0 1.328125 0.1875l3.796875 0zm-5.140625 0.96875q-1.03125 0 -1.71875 0.796875q-0.6875 0.796875 -0.6875 2.390625q0 1.578125 0.671875 2.375q0.671875 0.796875 1.75 0.796875q1.140625 0 1.796875 -0.828125q0.671875 -0.84375 0.671875 -2.359375q0 -1.375 -0.609375 -2.265625q-0.609375 -0.90625 -1.875 -0.90625zm9.234375 10.703125q-1.171875 -1.46875 -1.984375 -3.4375q-0.796875 -1.984375 -0.796875 -4.09375q0 -1.859375 0.609375 -3.5625q0.703125 -1.96875 2.171875 -3.9375l1.0 0q-0.9375 1.625 -1.25 2.328125q-0.46875 1.078125 -0.75 2.25q-0.328125 1.453125 -0.328125 2.9375q0 3.75 2.328125 7.515625l-1.0 0zm11.109375 -11.671875l0 1.140625l-2.265625 0q1.046875 0.96875 1.046875 3.015625q0 2.21875 -1.140625 3.28125q-1.140625 1.046875 -2.765625 1.046875q-1.6875 0 -2.78125 -1.09375q-1.09375 -1.09375 -1.09375 -3.25q0 -2.203125 1.140625 -3.265625q1.140625 -1.0625 2.734375 -1.0625q0.59375 0 1.328125 0.1875l3.796875 0zm-5.140625 0.96875q-1.03125 0 -1.71875 0.796875q-0.6875 0.796875 -0.6875 2.390625q0 1.578125 0.671875 2.375q0.671875 0.796875 1.75 0.796875q1.140625 0 1.796875 -0.828125q0.671875 -0.84375 0.671875 -2.359375q0 -1.375 -0.609375 -2.265625q-0.609375 -0.90625 -1.875 -0.90625zm9.234375 10.703125q-1.171875 -1.46875 -1.984375 -3.4375q-0.796875 -1.984375 -0.796875 -4.09375q0 -1.859375 0.609375 -3.5625q0.703125 -1.96875 2.171875 -3.9375l1.0 0q-0.9375 1.625 -1.25 2.328125q-0.46875 1.078125 -0.75 2.25q-0.328125 1.453125 -0.328125 2.9375q0 3.75 2.328125 7.515625l-1.0 0zm1.65625 -3.375l4.421875 -5.96875l-3.90625 -5.484375l1.8125 0l2.078125 2.9375q0.640625 0.90625 0.921875 1.40625q0.375 -0.625 0.90625 -1.3125l2.296875 -3.03125l1.65625 0l-4.03125 5.390625l4.34375 6.0625l-1.875 0l-2.890625 -4.09375q-0.234375 -0.34375 -0.5 -0.765625q-0.375 0.625 -0.546875 0.859375l-2.875 4.0l-1.8125 0zm19.34375 -11.453125l1.515625 0l0 6.609375q0 1.734375 -0.390625 2.75q-0.390625 1.015625 -1.40625 1.65625q-1.015625 0.640625 -2.671875 0.640625q-1.609375 0 -2.640625 -0.5625q-1.015625 -0.5625 -1.453125 -1.609375q-0.4375 -1.046875 -0.4375 -2.875l0 -6.609375l1.515625 0l0 6.609375q0 1.484375 0.265625 2.203125q0.28125 0.703125 0.953125 1.09375q0.6875 0.375 1.65625 0.375q1.671875 0 2.375 -0.75q0.71875 -0.765625 0.71875 -2.921875l0 -6.609375zm4.7890625 14.828125l-1.015625 0q2.34375 -3.765625 2.34375 -7.515625q0 -1.46875 -0.34375 -2.921875q-0.265625 -1.171875 -0.734375 -2.25q-0.3125 -0.703125 -1.265625 -2.34375l1.015625 0q1.46875 1.96875 2.171875 3.9375q0.59375 1.703125 0.59375 3.5625q0 2.109375 -0.8125 4.09375q-0.796875 1.96875 -1.953125 3.4375zm7.859375 -3.375l-4.4375 -11.453125l1.640625 0l2.96875 8.3125q0.359375 1.0 0.609375 1.875q0.265625 -0.9375 0.609375 -1.875l3.09375 -8.3125l1.546875 0l-4.484375 11.453125l-1.546875 0zm8.140625 3.375l-1.015625 0q2.34375 -3.765625 2.34375 -7.515625q0 -1.46875 -0.34375 -2.921875q-0.265625 -1.171875 -0.734375 -2.25q-0.3125 -0.703125 -1.265625 -2.34375l1.015625 0q1.46875 1.96875 2.171875 3.9375q0.59375 1.703125 0.59375 3.5625q0 2.109375 -0.8125 4.09375q-0.796875 1.96875 -1.953125 3.4375z" fill-rule="nonzero"/><path fill="#000000" fill-opacity="0.0" d="m211.44151 91.91076l27.905502 0l0 38.77166l-27.905502 0z" fill-rule="evenodd"/><path fill="#000000" d="m229.19151 104.817635l1.515625 0l0 6.609375q0 1.734375 -0.390625 2.75q-0.390625 1.015625 -1.40625 1.65625q-1.015625 0.640625 -2.671875 0.640625q-1.609375 0 -2.640625 -0.5625q-1.015625 -0.5625 -1.453125 -1.609375q-0.4375 -1.046875 -0.4375 -2.875l0 -6.609375l1.515625 0l0 6.609375q0 1.484375 0.265625 2.203125q0.28125 0.703125 0.953125 1.09375q0.6875 0.375 1.65625 0.375q1.671875 0 2.375 -0.75q0.71875 -0.765625 0.71875 -2.921875l0 -6.609375z" fill-rule="nonzero"/><path fill="#000000" fill-opacity="0.0" d="m550.4183 92.90551l27.905518 0l0 38.77166l-27.905518 0z" fill-rule="evenodd"/><path fill="#000000" d="m563.9339 117.26551l-4.4375 -11.453125l1.640625 0l2.96875 8.3125q0.359375 1.0 0.609375 1.875q0.265625 -0.9375 0.609375 -1.875l3.09375 -8.3125l1.546875 0l-4.484375 11.453125l-1.546875 0z" fill-rule="nonzero"/></g></svg>